Coordinates
version=1
nRows=6
nColumns=46
inDegrees=yes

Units are S.I. units (second, meters, Newtons, ...)
Angles are in degrees.

endheader
time	pelvis_tilt	pelvis_list	pelvis_rotation	pelvis_tx	pelvis_ty	pelvis_tz	bb_angle	bb_tx	bb_ty	bb_tz	hip_flexion_r	hip_adduction_r	hip_rotation_r	knee_angle_r	knee_angle_r_beta	ankle_angle_r	subtalar_angle_r	mtp_angle_r	crank_angle_r	hip_flexion_l	hip_adduction_l	hip_rotation_l	knee_angle_l	knee_angle_l_beta	ankle_angle_l	subtalar_angle_l	mtp_angle_l	crank_angle_l	lumbar_extension	lumbar_bending	lumbar_rotation	arm_flex_r	arm_add_r	arm_rot_r	elbow_flex_r	pro_sup_r	wrist_flex_r	wrist_dev_r	arm_flex_l	arm_add_l	arm_rot_l	elbow_flex_l	pro_sup_l	wrist_flex_l	wrist_dev_l
      5.00000000	    -18.78077549	      3.38046784	      0.49581804	      0.16412349	      1.06852405	     -0.22621743	      0.00000000	      0.50000000	      0.00000000	      0.25000000	     40.99299302	     -9.10707440	     -4.24796469	     24.40817635	      0.42600304	    -38.07622625	     -0.29374702	      0.00000000	      0.00000000	     90.26604278	     -1.64097865	      2.17548272	    115.80292688	      2.02114236	     -7.33887951	    -14.56220554	      0.00000000	      0.00000000	    -60.95040488	     -3.31738395	     -7.98111853	     88.36660373	     -9.18324877	     25.90598112	     58.18699645	     41.90971706	      0.00000000	      0.00000000	     83.45696091	    -13.09838109	     15.14361523	     70.45524491	     49.72698237	      0.00000000	      0.00000000
      5.00500000	    -19.33458271	      3.62140979	      0.99272663	      0.16310888	      1.06831076	     -0.22651059	      0.00000000	      0.50000000	      0.00000000	      0.25000000	     41.17163979	     -9.46121297	     -3.95064076	     25.03817185	      0.43699854	    -37.82193361	     -1.24986698	      0.00000000	      0.00000000	     91.54679374	     -0.89327919	      2.15576157	    115.36352090	      2.01347328	     -6.40376279	    -14.46013493	      0.00000000	      0.00000000	    -60.70552147	     -3.22221001	     -8.44695557	     88.46883740	     -9.27061860	     25.74048260	     58.36890365	     41.93830183	      0.00000000	      0.00000000	     83.79190644	    -12.91971748	     15.10270063	     70.70943990	     49.75505363	      0.00000000	      0.00000000
      5.01000000	    -19.71739018	      3.68951833	      1.45593107	      0.16227932	      1.06832807	     -0.22639364	      0.00000000	      0.50000000	      0.00000000	      0.25000000	     41.26946777	     -9.58630148	     -3.69265593	     26.00432281	      0.45386105	    -37.47099347	     -2.59765634	      0.00000000	      0.00000000	     92.52508330	     -0.34558127	      2.26111497	    114.80798656	      2.00377737	     -5.39575715	    -14.19213342	      0.00000000	      0.00000000	    -60.58378028	     -3.00982905	     -8.80519462	     88.52153222	     -9.30012269	     25.60941616	     58.60312046	     41.97767808	      0.00000000	      0.00000000	     84.00971506	    -12.81846652	     15.01467546	     70.93151229	     49.77431140	      0.00000000	      0.00000000
      5.01500000	    -20.12000271	      3.67743422	      1.85304468	      0.16141640	      1.06806654	     -0.22610625	      0.00000000	      0.50000000	      0.00000000	      0.25000000	     41.59408455	     -9.56322753	     -3.23090550	     27.30341469	      0.47653448	    -37.16794506	     -4.20089528	      0.00000000	      0.00000000	     93.38690371	      0.08666972	      2.48532785	    114.14745229	      1.99224888	     -4.01933098	    -13.32603770	      0.00000000	      0.00000000	    -60.35624773	     -2.83192997	     -9.09517094	     88.47030815	     -9.29623438	     25.36936183	     59.04477867	     42.06122595	      0.00000000	      0.00000000	     84.07991833	    -12.78847510	     14.84063693	     71.31102772	     49.80480240	      0.00000000	      0.00000000
      5.02000000	    -20.43747576	      3.66791575	      2.33239621	      0.16022531	      1.06763690	     -0.22594021	      0.00000000	      0.50000000	      0.00000000	      0.25000000	     41.94648463	     -9.56922288	     -2.67263352	     28.74298739	      0.50165977	    -36.85706017	     -5.66922022	      0.00000000	      0.00000000	     94.03575167	      0.66899711	      2.66943673	    113.32051522	      1.97781610	     -2.77364524	    -13.11418665	      0.00000000	      0.00000000	    -60.20165481	     -2.58166075	     -9.38824955	     88.52687149	     -9.34862253	     25.21748056	     59.26059415	     42.10196152	      0.00000000	      0.00000000	     84.31976185	    -12.74822570	     14.80256422	     71.53770767	     49.82554818	      0.00000000	      0.00000000
      5.02500000	    -20.68572620	      3.75752784	      2.70350174	      0.15945411	      1.06736523	     -0.22600585	      0.00000000	      0.50000000	      0.00000000	      0.25000000	     42.41977896	     -9.65321490	     -2.06858016	     30.40939627	      0.53074409	    -36.63687522	     -6.97487656	      0.00000000	      0.00000000	     94.35757467	      1.29799339	      2.77081114	    112.36211057	      1.96108878	     -1.38052875	    -12.84787914	      0.00000000	      0.00000000	    -60.08561870	     -2.44075419	     -9.71529626	     88.57150368	     -9.42531511	     25.13005231	     59.43905055	     42.13784022	      0.00000000	      0.00000000	     84.49123500	    -12.76642720	     14.79843882	     71.68891969	     49.84032357	      0.00000000	      0.00000000
